name pl04_filtered_grf.mot
datacolumns 37
datarows 11
range 0.629500 0.634500
endheader
time	1_ground_force_vx	1_ground_force_vy	1_ground_force_vz	1_ground_force_px	1_ground_force_py	1_ground_force_pz	1_ground_torque_x	1_ground_torque_y	1_ground_torque_z	2_ground_force_vx	2_ground_force_vy	2_ground_force_vz	2_ground_force_px	2_ground_force_py	2_ground_force_pz	2_ground_torque_x	2_ground_torque_y	2_ground_torque_z	3_ground_force_vx	3_ground_force_vy	3_ground_force_vz	3_ground_force_px	3_ground_force_py	3_ground_force_pz	3_ground_torque_x	3_ground_torque_y	3_ground_torque_z	4_ground_force_vx	4_ground_force_vy	4_ground_force_vz	4_ground_force_px	4_ground_force_py	4_ground_force_pz	4_ground_torque_x	4_ground_torque_y	4_ground_torque_z
            0.629500	            0.714941	            2.533653	           -0.068129	            0.450000	            0.000000	            0.900000	            1.528533	           -0.443736	           -0.838203	           -2.891751	            8.563329	            9.993124	           -0.150611	            0.000000	            0.234951	           -0.001284	            0.003802	            0.004437	           22.643748	            1.079469	            0.327154	            0.375417	            1.311081	            1.912784	           -0.093265	           -0.004446	           -0.001347	          -18.303518	           -0.552702	            1.300784	           -0.265131	            1.310134	            1.923009	            0.002584	            0.000078	           -0.000184
            0.630000	            1.172344	           -0.618509	           -2.877406	            0.450000	            0.000000	            0.900000	           -0.470807	           -1.610839	            0.171751	           -3.157942	            5.039412	            8.449738	           -0.149550	            0.000000	            0.203272	           -0.002854	            0.004554	            0.007635	           22.658269	            1.072179	            0.342767	            0.375422	            1.311083	            1.912774	           -0.093078	           -0.004404	           -0.001408	          -18.304596	           -0.548503	            1.275489	           -0.265125	            1.310133	            1.922992	            0.002342	            0.000070	           -0.000163
            0.630500	            1.654694	           -4.026816	           -5.888560	            0.450000	            0.000000	            0.900000	           -2.631743	           -2.857128	            1.264060	           -3.409444	            1.161134	            6.678330	           -0.306800	            0.000000	            0.392000	            0.508771	           -0.313589	            0.203543	           22.673645	            1.064326	            0.356970	            0.375425	            1.311084	            1.912765	           -0.092909	           -0.004361	           -0.001463	          -18.306932	           -0.544332	            1.249251	           -0.265123	            1.310132	            1.922980	            0.002107	            0.000063	           -0.000144
            0.631000	            2.158442	           -7.672038	           -9.083125	            0.138887	            0.000000	            0.257253	           -0.010863	            0.038612	            0.045713	           -3.641963	           -3.055306	            4.680581	           -0.306800	            0.000000	            0.392000	            0.026749	            0.139331	           -0.445161	           22.689735	            1.055970	            0.368472	            0.375429	            1.311085	            1.912755	           -0.092761	           -0.004317	           -0.001506	          -18.310431	           -0.540108	            1.223882	           -0.265122	            1.310131	            1.922969	            0.001879	            0.000055	           -0.000126
            0.631500	            2.679476	          -11.530329	          -12.438846	            0.136868	            0.000000	            0.260485	           -0.012750	            0.054864	            0.059187	           -3.851044	           -7.588201	            2.461013	           -0.179660	            0.000000	            0.289995	            0.278376	            0.548521	           -0.177897	           22.706355	            1.047172	            0.377155	            0.375433	            1.311085	            1.912746	           -0.092635	           -0.004272	           -0.001539	          -18.315102	           -0.535834	            1.199568	           -0.265120	            1.310129	            1.922957	            0.001660	            0.000049	           -0.000109
            0.632000	            3.213122	          -15.573078	          -15.929593	            0.135784	            0.000000	            0.262205	           -0.014717	            0.071329	            0.072962	           -4.032094	          -12.410089	            0.027185	           -0.155062	            0.000000	            0.287709	            0.238684	            0.734628	           -0.001609	           22.723294	            1.037999	            0.382928	            0.375436	            1.311086	            1.912736	           -0.092533	           -0.004227	           -0.001559	          -18.320939	           -0.531515	            1.176485	           -0.265119	            1.310128	            1.922945	            0.001453	            0.000042	           -0.000093
            0.632500	            3.754144	          -19.766795	          -19.525322	            0.135101	            0.000000	            0.263284	           -0.016732	            0.088101	            0.087025	           -4.180432	          -17.487548	           -2.610120	           -0.147139	            0.000000	            0.286138	            0.201839	            0.844329	            0.126021	           22.740315	            1.028518	            0.385732	            0.375440	            1.311087	            1.912727	           -0.092458	           -0.004182	           -0.001568	          -18.327927	           -0.527160	            1.154800	           -0.265117	            1.310127	            1.922934	            0.001259	            0.000036	           -0.000079
            0.633000	            4.296756	          -24.073038	          -23.192065	            0.134625	            0.000000	            0.264031	           -0.018765	            0.105134	            0.101286	           -4.291320	          -22.781032	           -5.436735	           -0.144200	            0.000000	            0.284484	            0.176463	            0.936777	            0.223564	           22.757143	            1.018801	            0.386631	            0.375442	            1.311086	            1.912719	           -0.092411	           -0.004137	           -0.001570	          -18.336155	           -0.522861	            1.132729	           -0.265121	            1.310124	            1.922928	            0.001080	            0.000031	           -0.000067
            0.633500	            4.834640	          -28.448394	          -26.891975	            0.134272	            0.000000	            0.264583	           -0.020787	            0.122318	            0.115626	           -4.360017	          -28.244764	           -8.434965	           -0.142972	            0.000000	            0.282988	            0.158190	            1.024775	            0.306037	           22.773521	            1.008922	            0.384538	            0.375444	            1.311085	            1.912711	           -0.092392	           -0.004093	           -0.001560	          -18.345461	           -0.518545	            1.112346	           -0.265125	            1.310122	            1.922923	            0.000919	            0.000026	           -0.000056
            0.634000	            5.360966	          -32.844499	          -30.583398	            0.133996	            0.000000	            0.265010	           -0.022772	            0.139513	            0.129909	           -4.381827	          -33.826688	          -11.583481	           -0.142432	            0.000000	            0.281695	            0.143816	            1.110223	            0.380180	           22.789158	            0.998958	            0.379488	            0.375446	            1.311084	            1.912703	           -0.092403	           -0.004050	           -0.001539	          -18.355792	           -0.514231	            1.093771	           -0.265129	            1.310120	            1.922918	            0.000777	            0.000022	           -0.000046
            0.634500	            5.868427	          -37.208119	          -34.221013	            0.133772	            0.000000	            0.265352	           -0.024692	            0.156558	            0.143990	           -4.352146	          -39.468474	          -14.857229	           -0.142209	            0.000000	            0.280580	            0.131489	            1.192441	            0.448874	           22.803751	            0.988985	            0.371547	            0.375449	            1.311084	            1.912695	           -0.092444	           -0.004009	           -0.001506	          -18.367085	           -0.509939	            1.077109	           -0.265133	            1.310118	            1.922912	            0.000657	            0.000018	           -0.000039
